<svg width="21" height="28" viewBox="0 0 21 28" fill="none" xmlns="http://www.w3.org/2000/svg">
<mask id="path-1-inside-1_48_590" fill="white">
<path fill-rule="evenodd" clip-rule="evenodd" d="M10.3524 27.7207C10.3524 27.7207 20.7049 17.0278 20.7049 11.2756C20.7049 5.52341 16.0699 0.860352 10.3524 0.860352C4.63494 0.860352 0 5.52341 0 11.2756C0 17.0278 10.3524 27.7207 10.3524 27.7207ZM10 12.8604C11.1046 12.8604 12 11.9649 12 10.8604C12 9.75578 11.1046 8.86035 10 8.86035C8.89543 8.86035 8 9.75578 8 10.8604C8 11.9649 8.89543 12.8604 10 12.8604Z"/>
</mask>
<path d="M10.3524 27.7207L9.63397 28.4163L10.3524 29.1584L11.0709 28.4163L10.3524 27.7207ZM19.7049 11.2756C19.7049 12.4583 19.1571 14.0242 18.2058 15.7996C17.2703 17.5456 16.011 19.3743 14.7336 21.0486C13.459 22.7193 12.182 24.2159 11.2224 25.2959C10.7431 25.8353 10.3442 26.2695 10.0658 26.5681C9.92669 26.7173 9.81776 26.8326 9.74409 26.91C9.70725 26.9488 9.67924 26.978 9.66068 26.9974C9.65139 27.0071 9.64447 27.0142 9.64 27.0189C9.63776 27.0212 9.63613 27.0229 9.63512 27.0239C9.63462 27.0245 9.63427 27.0248 9.63408 27.025C9.63398 27.0251 9.63396 27.0251 9.63391 27.0252C9.63392 27.0252 9.63397 27.0251 10.3524 27.7207C11.0709 28.4163 11.071 28.4161 11.0712 28.416C11.0713 28.4158 11.0715 28.4156 11.0717 28.4154C11.0722 28.415 11.0728 28.4143 11.0735 28.4136C11.075 28.412 11.0771 28.4098 11.0799 28.407C11.0853 28.4013 11.0933 28.3931 11.1036 28.3823C11.1242 28.3608 11.1543 28.3294 11.1933 28.2884C11.2713 28.2064 11.3847 28.0863 11.5287 27.9319C11.8165 27.6232 12.2263 27.1771 12.7175 26.6243C13.6991 25.5196 15.0102 23.9834 16.3237 22.2618C17.6344 20.5438 18.9632 18.6208 19.9687 16.7441C20.9586 14.8967 21.7049 12.969 21.7049 11.2756H19.7049ZM10.3524 1.86035C15.5119 1.86035 19.7049 6.06998 19.7049 11.2756H21.7049C21.7049 4.97684 16.6279 -0.139648 10.3524 -0.139648V1.86035ZM1 11.2756C1 6.06998 5.19292 1.86035 10.3524 1.86035V-0.139648C4.07696 -0.139648 -1 4.97684 -1 11.2756H1ZM10.3524 27.7207C11.0709 27.0251 11.0709 27.0252 11.0709 27.0252C11.0709 27.0251 11.0709 27.0251 11.0708 27.025C11.0706 27.0248 11.0702 27.0245 11.0697 27.0239C11.0687 27.0229 11.0671 27.0212 11.0649 27.0189C11.0604 27.0142 11.0535 27.0071 11.0442 26.9974C11.0256 26.978 10.9976 26.9488 10.9608 26.91C10.8871 26.8326 10.7782 26.7173 10.639 26.5681C10.3607 26.2695 9.96172 25.8353 9.48242 25.2959C8.52284 24.2159 7.24585 22.7193 5.97125 21.0486C4.69383 19.3743 3.43455 17.5456 2.49901 15.7996C1.54779 14.0242 1 12.4583 1 11.2756H-1C-1 12.969 -0.25374 14.8967 0.736121 16.7441C1.74166 18.6208 3.07049 20.5438 4.38118 22.2618C5.69469 23.9834 7.0058 25.5196 7.9873 26.6243C8.47854 27.1771 8.88837 27.6232 9.17618 27.9319C9.3201 28.0863 9.43359 28.2064 9.51156 28.2884C9.55055 28.3294 9.58067 28.3608 9.60128 28.3823C9.61159 28.3931 9.61952 28.4013 9.62499 28.407C9.62773 28.4098 9.62985 28.412 9.63135 28.4136C9.6321 28.4143 9.6327 28.415 9.63313 28.4154C9.63335 28.4156 9.63356 28.4158 9.63367 28.416C9.63384 28.4161 9.63397 28.4163 10.3524 27.7207ZM11 10.8604C11 11.4126 10.5523 11.8604 10 11.8604V13.8604C11.6569 13.8604 13 12.5172 13 10.8604H11ZM10 9.86035C10.5523 9.86035 11 10.3081 11 10.8604H13C13 9.2035 11.6569 7.86035 10 7.86035V9.86035ZM9 10.8604C9 10.3081 9.44772 9.86035 10 9.86035V7.86035C8.34315 7.86035 7 9.2035 7 10.8604H9ZM10 11.8604C9.44772 11.8604 9 11.4126 9 10.8604H7C7 12.5172 8.34315 13.8604 10 13.8604V11.8604Z" fill="#211041" mask="url(#path-1-inside-1_48_590)"/>
</svg>
