<svg width="30" height="30" viewBox="0 0 30 30" fill="none" xmlns="http://www.w3.org/2000/svg">
<path fill-rule="evenodd" clip-rule="evenodd" d="M30 15C30 23.2843 23.2843 30 15 30C6.71573 30 0 23.2843 0 15C0 6.71573 6.71573 0 15 0C23.2843 0 30 6.71573 30 15ZM15.5375 11.0741C14.0785 11.681 11.1626 12.937 6.78981 14.8421C6.07973 15.1245 5.70777 15.4007 5.6739 15.6708C5.61668 16.1273 6.18833 16.3071 6.96679 16.5519C7.07267 16.5852 7.18239 16.6197 7.29486 16.6562C8.06074 16.9052 9.09098 17.1964 9.62655 17.208C10.1124 17.2185 10.6546 17.0182 11.2532 16.6071C15.3389 13.8492 17.4479 12.4552 17.5803 12.4252C17.6737 12.404 17.8032 12.3773 17.8909 12.4553C17.9786 12.5332 17.97 12.6809 17.9607 12.7205C17.9041 12.9619 15.6601 15.0481 14.4988 16.1277C14.1368 16.4643 13.88 16.703 13.8275 16.7575C13.7099 16.8797 13.5901 16.9952 13.4749 17.1062C12.7634 17.7921 12.2298 18.3065 13.5045 19.1465C14.117 19.5501 14.6071 19.8839 15.0961 20.2169C15.6301 20.5806 16.1628 20.9433 16.852 21.3951C17.0275 21.5101 17.1952 21.6297 17.3585 21.7461C17.98 22.1892 18.5384 22.5872 19.2282 22.5238C19.629 22.4869 20.043 22.11 20.2533 20.9859C20.7502 18.3294 21.727 12.5735 21.9527 10.2017C21.9725 9.99387 21.9476 9.72792 21.9276 9.61118C21.9077 9.49443 21.8659 9.32809 21.7142 9.20496C21.5344 9.05913 21.257 9.02838 21.1329 9.03056C20.5687 9.0405 19.7031 9.34148 15.5375 11.0741Z" fill="#211041"/>
</svg>
