<svg width="30" height="30" viewBox="0 0 30 30" fill="none" xmlns="http://www.w3.org/2000/svg">
<path fill-rule="evenodd" clip-rule="evenodd" d="M4.3064 0C1.92804 0 0 1.92804 0 4.3064V25.6936C0 28.072 1.92804 30 4.3064 30H25.6936C28.072 30 30 28.072 30 25.6936V4.3064C30 1.92804 28.072 0 25.6936 0H4.3064ZM24.6611 10.5396C24.5455 10.1187 24.3178 9.73462 24.0006 9.42571C23.6834 9.11679 23.288 8.89391 22.8538 8.77937C21.2556 8.36347 14.8673 8.36347 14.8673 8.36347C14.8673 8.36347 8.47901 8.36347 6.88078 8.77937C6.44662 8.89391 6.05117 9.11679 5.73399 9.42571C5.41682 9.73462 5.18905 10.1187 5.07347 10.5396C4.64604 12.093 4.64604 15.3325 4.64604 15.3325C4.64604 15.3325 4.64604 18.572 5.07347 20.1254C5.18905 20.5463 5.41682 20.9304 5.73399 21.2393C6.05117 21.5482 6.44662 21.7711 6.88078 21.8857C8.47901 22.3015 14.8673 22.3015 14.8673 22.3015C14.8673 22.3015 21.2556 22.3015 22.8538 21.8857C23.288 21.7711 23.6834 21.5482 24.0006 21.2393C24.3178 20.9304 24.5455 20.5463 24.6611 20.1254C25.0885 18.572 25.0885 15.3325 25.0885 15.3325C25.0885 15.3325 25.0885 12.093 24.6611 10.5396ZM12.7766 18.2741L18.1195 15.3325L12.7766 12.3909V18.2741Z" fill="#211041"/>
</svg>
