<svg width="30" height="30" viewBox="0 0 30 30" fill="none" xmlns="http://www.w3.org/2000/svg">
<path fill-rule="evenodd" clip-rule="evenodd" d="M2.10883 2.10883C0 4.21766 0 7.61175 0 14.4V15.6C0 22.3883 0 25.7823 2.10883 27.8912C4.21766 30 7.61175 30 14.4 30H15.6C22.3883 30 25.7823 30 27.8912 27.8912C30 25.7823 30 22.3883 30 15.6V14.4C30 7.61175 30 4.21766 27.8912 2.10883C25.7823 0 22.3883 0 15.6 0H14.4C7.61175 0 4.21766 0 2.10883 2.10883ZM5.06262 9.12598C5.22512 16.926 9.12506 21.6135 15.9626 21.6135H16.3502V17.151C18.8627 17.401 20.7625 19.2385 21.525 21.6135H25.0751C24.1001 18.0635 21.5375 16.101 19.9375 15.351C21.5375 14.426 23.7875 12.176 24.325 9.12598H21.0999C20.3999 11.601 18.3252 13.851 16.3502 14.0635V9.12598H13.1251V17.776C11.1251 17.276 8.60012 14.851 8.48762 9.12598H5.06262Z" fill="white"/>
</svg>
